# xmcd
#
# Track frame offsets: 
#        150
#        5670
#        31786
#        52412
#        78428
#        82457
#        108089
#        124409
#        146625
#        170230
#        200512
#        229631
#
# Disc length: 3350 seconds
#
# Revision: 0
# Processed by: cddbd v1.5.2PL0 Copyright (c) Steve Scherf et al.
# Submitted via: ExactAudioCopyFreeDBPlugin 1.0
#
DISCID=ac0d140c
DTITLE=Damu - Unity
DYEAR=2011
DGENRE=Electronic
TTITLE0=Unity
TTITLE1=Breathless
TTITLE2=L.O.V.E.
TTITLE3=After Indigo
TTITLE4=Weapon #3
TTITLE5=Maths Is Fine For Sum
TTITLE6=Cheat When U Compete
TTITLE7=Ridin' The Hype (feat Trim)
TTITLE8=Waterfall Of Light
TTITLE9=Plasm
TTITLE10=Ether
TTITLE11=Don't Cry In My Bed
EXTD=
EXTT0=
EXTT1=
EXTT2=
EXTT3=
EXTT4=
EXTT5=
EXTT6=
EXTT7=
EXTT8=
EXTT9=
EXTT10=
EXTT11=
PLAYORDER=
